<?xml version="1.0" encoding="utf-8"?>
<svg viewBox="618.782 169.233 169 75.326" width="169" height="75.326" xmlns="http://www.w3.org/2000/svg">
  <path d="M 649.492 217.711 C 641.96 217.711 636.745 222.926 636.745 230.845 C 636.745 239.73 643.312 244.365 651.23 244.365 C 654.9 244.365 657.99 243.206 659.342 242.434 L 660.308 237.026 L 659.729 237.026 C 658.57 237.991 655.673 238.957 652.389 238.957 C 647.368 238.957 644.47 236.639 643.698 232.39 L 660.888 232.39 C 661.274 231.424 661.467 229.879 661.467 228.527 C 661.274 222.154 656.445 217.711 649.492 217.711 Z M 643.505 228.334 C 644.084 224.664 646.402 222.926 649.492 222.926 C 652.776 222.926 654.707 224.664 654.707 228.334 L 643.505 228.334 Z" style="fill: rgb(255, 255, 255);" transform="matrix(1, 0, 0, 1, -7.105427357601002e-15, 0)"/>
  <path d="M 698.164 217.712 C 694.494 217.712 691.983 219.257 690.245 221.381 L 690.245 206.509 L 688.506 206.509 L 683.292 209.407 L 683.292 243.593 L 690.245 243.593 L 690.245 226.017 C 691.017 224.858 693.142 223.313 695.653 223.313 C 698.55 223.313 700.288 224.858 700.288 228.528 L 700.288 243.4 L 707.434 243.4 L 707.434 227.755 C 707.434 221.381 703.765 217.712 698.164 217.712 Z" style="fill: rgb(255, 255, 255);" transform="matrix(1, 0, 0, 1, -7.105427357601002e-15, 0)"/>
  <path d="M 724.432 217.711 C 716.899 217.711 711.684 222.926 711.684 230.845 C 711.684 239.73 718.251 244.365 726.17 244.365 C 729.84 244.365 732.93 243.206 734.282 242.434 L 735.248 237.026 L 734.475 237.026 C 733.316 237.991 730.419 238.957 727.136 238.957 C 722.114 238.957 719.217 236.639 718.444 232.39 L 735.634 232.39 C 736.02 231.424 736.213 229.879 736.213 228.527 C 736.213 222.154 731.385 217.711 724.432 217.711 Z M 718.444 228.334 C 719.024 224.664 721.341 222.926 724.432 222.926 C 727.715 222.926 729.647 224.664 729.647 228.334 L 718.444 228.334 Z" style="fill: rgb(255, 255, 255);" transform="matrix(1, 0, 0, 1, -7.105427357601002e-15, 0)"/>
  <path d="M 747.222 223.892 L 747.222 218.484 L 745.484 218.484 L 741.042 220.995 L 741.042 243.786 L 747.995 243.786 L 747.995 228.334 C 749.54 226.403 752.437 225.051 755.141 225.051 C 755.914 225.051 756.686 225.244 757.266 225.437 L 757.845 225.437 L 756.686 217.905 C 752.823 218.098 749.154 220.222 747.222 223.892 Z" style="fill: rgb(255, 255, 255);" transform="matrix(1, 0, 0, 1, -7.105427357601002e-15, 0)"/>
  <path d="M 772.33 206.316 C 766.343 206.316 762.287 210.179 762.287 215.78 L 762.287 220.029 L 757.844 223.506 L 757.844 224.472 L 762.287 224.472 L 762.287 243.786 L 769.24 243.786 L 769.24 224.472 L 775.42 224.472 L 776.579 218.87 L 769.24 218.87 L 769.24 215.973 C 769.24 213.076 771.365 211.917 773.875 211.917 C 775.227 211.917 776.193 212.304 776.579 212.497 L 777.159 212.497 L 776.193 207.089 C 775.614 206.702 774.068 206.316 772.33 206.316 Z" style="fill: rgb(255, 255, 255);" transform="matrix(1, 0, 0, 1, -7.105427357601002e-15, 0)"/>
  <path d="M 787.782 218.485 L 781.022 218.485 L 781.022 243.786 L 787.782 243.786 L 787.782 218.485 Z" style="fill: rgb(255, 255, 255);" transform="matrix(1, 0, 0, 1, -7.105427357601002e-15, 0)"/>
  <path d="M 633.654 224.086 L 634.813 218.485 L 625.735 218.485 L 625.735 212.69 L 623.997 212.69 L 618.782 215.588 L 618.782 235.095 C 618.782 242.434 623.804 244.559 628.439 244.559 C 630.564 244.559 632.302 244.173 633.461 243.4 L 634.426 237.799 L 634.04 237.799 C 633.268 238.378 631.722 238.958 630.177 238.958 C 627.28 238.958 625.928 237.413 625.928 234.322 L 625.928 224.086 L 633.654 224.086 Z" style="fill: rgb(255, 255, 255);" transform="matrix(1, 0, 0, 1, -7.105427357601002e-15, 0)"/>
  <path d="M 678.849 224.086 L 680.008 218.485 L 671.124 218.485 L 671.124 212.69 L 669.385 212.69 L 664.171 215.588 L 664.171 235.095 C 664.171 242.434 669.192 244.559 673.828 244.559 C 675.952 244.559 677.691 244.173 678.849 243.4 L 679.815 237.799 L 679.236 237.799 C 678.463 238.378 676.918 238.958 675.373 238.958 C 672.476 238.958 671.124 237.413 671.124 234.322 L 671.124 224.086 L 678.849 224.086 Z" style="fill: rgb(255, 255, 255);" transform="matrix(1, 0, 0, 1, -7.105427357601002e-15, 0)"/>
  <path d="M 722.307 193.183 L 729.261 197.239 L 732.737 195.114 L 732.737 187.195 L 722.307 193.183 Z" style="fill: rgb(255, 255, 255);" transform="matrix(1, 0, 0, 1, -7.105427357601002e-15, 0)"/>
  <path d="M 749.927 177.345 L 739.69 183.332 L 739.69 202.26 L 746.45 198.204 L 746.45 187.195 L 756.88 181.208 L 749.927 177.345 Z" style="fill: rgb(255, 255, 255);" transform="matrix(1, 0, 0, 1, -7.105427357601002e-15, 0)"/>
  <path d="M 756.88 173.289 L 749.927 169.233 L 749.927 177.345 L 756.88 181.208 L 756.88 173.289 Z" fill="#E01D40" transform="matrix(1, 0, 0, 1, -7.105427357601002e-15, 0)"/>
</svg>